<svg xmlns="http://www.w3.org/2000/svg" width="512" height="512" viewBox="0 0 512 512" version="1.1">
	<path d="M 245.199 104.250 C 240.781 107.688, 229.315 116.872, 219.719 124.659 C 169.142 165.709, 109.534 214.026, 95.313 225.500 C 76.023 241.064, 74.617 243.115, 79.411 248.694 L 81.821 251.500 99.661 252 L 117.500 252.500 118 330.500 C 118.377 389.347, 118.800 409.024, 119.722 410.632 C 122.258 415.056, 127.817 415.194, 131.411 410.923 L 134 407.847 134 324.534 C 134 244.052, 133.935 241.141, 132.092 238.861 C 130.355 236.711, 129.217 236.455, 119.381 236 L 108.578 235.500 134.039 215.055 C 148.043 203.810, 167.375 188.248, 177 180.473 C 186.625 172.697, 209.800 154.061, 228.500 139.058 C 247.200 124.055, 263.100 110.660, 263.834 109.291 C 266.521 104.276, 262.510 98, 256.616 98 C 253.989 98, 251.436 99.397, 245.199 104.250 M 276.174 121.314 C 274.844 122.731, 274 124.917, 274 126.946 C 274 131.149, 274.288 131.419, 306.085 157.079 C 333.693 179.358, 360.910 201.346, 385.627 221.340 C 394.357 228.402, 401.650 234.589, 401.833 235.090 C 402.019 235.597, 397.902 236, 392.538 236 C 383.648 236, 382.721 236.188, 380.455 238.455 L 378 240.909 378 319.455 L 378 398 345.500 398 L 313 398 313 353.710 C 313 317.340, 312.728 308.354, 311.478 303.460 C 306.784 285.072, 293.258 270.148, 275.479 263.739 C 248.512 254.018, 218.365 265.873, 205.669 291.190 C 199.433 303.626, 199 307.799, 199 355.458 C 199 393.133, 198.826 397.853, 197.418 398.393 C 196.548 398.727, 186.648 399, 175.418 399 C 156.333 399, 154.869 399.131, 153 401 C 150.215 403.785, 150.368 409.057, 153.314 411.826 C 155.576 413.950, 156.262 414, 183.064 413.985 C 198.154 413.976, 210.995 413.639, 211.600 413.235 C 214.672 411.183, 215.001 407.702, 215.088 376.316 C 215.136 358.817, 215.497 335.725, 215.890 325 C 216.575 306.286, 216.719 305.259, 219.482 299.522 C 228.951 279.859, 253.812 271.235, 273.796 280.681 C 280.373 283.790, 288.830 291.786, 291.895 297.795 C 296.765 307.340, 297 310.256, 297 361.075 C 297 407.772, 297.042 408.783, 299.073 411.365 L 301.145 414 345.462 414 C 387.603 414, 389.894 413.906, 392.139 412.089 L 394.500 410.177 395 331.339 L 395.500 252.500 412.962 252.225 C 429.250 251.969, 430.577 251.807, 432.712 249.801 C 434.281 248.327, 435 246.511, 435 244.022 C 435 239.514, 434.424 238.949, 409.387 218.846 C 392.034 204.913, 360.961 179.887, 305.625 135.275 C 288.112 121.157, 285.036 119.047, 281.924 119.025 C 279.457 119.008, 277.675 119.718, 276.174 121.314 M 244.500 164.754 C 241.750 165.736, 237.376 168.005, 234.780 169.797 C 216.762 182.233, 214.588 209.944, 230.446 225.057 C 236.335 230.670, 240.101 232.811, 247.349 234.668 C 264.288 239.008, 281.714 230.600, 289.637 214.265 C 292.053 209.283, 292.437 207.275, 292.466 199.479 C 292.497 191.286, 292.202 189.852, 289.250 183.856 C 285.391 176.017, 279.104 169.869, 271.175 166.181 C 263.757 162.731, 251.936 162.098, 244.500 164.754 M 251.790 179.976 C 247.114 180.853, 240.994 185.047, 238.684 188.957 C 232.012 200.253, 238.897 216.096, 251.668 218.835 C 264.162 221.515, 274.897 213.573, 275.808 200.975 C 276.809 187.139, 265.644 177.377, 251.790 179.976" stroke="none" fill="black" fill-rule="evenodd"/>
</svg>