<svg width="512" height="512" xmlns="http://www.w3.org/2000/svg" class="ionicon">
 <title>Person Add</title>

 <g>
  <title>background</title>
  <rect fill="#76ab2e" id="canvas_background" height="514" width="514" y="-1" x="-1"/>
 </g>
 <g>
  <title>Layer 1</title>
  <path id="svg_1" stroke-width="32" stroke-linejoin="round" stroke-linecap="round" stroke="#ffffff" fill="#76ab2e" d="m376,144c-3.92,52.87 -44,96 -88,96s-84.15,-43.12 -88,-96c-4,-55 35,-96 88,-96s92,42 88,96z"/>
  <path id="svg_2" stroke-width="32" stroke-miterlimit="10" stroke="#ffffff" fill="#76ab2e" d="m288.584795,304c-87,0 -175.3,48 -191.64,138.6c-2,10.92 4.21,21.4 15.65,21.4l351.99,0c11.44,0 17.62,-10.48 15.65,-21.4c-16.35,-90.6 -104.65,-138.6 -191.65,-138.6z"/>
  <path id="svg_3" d="m88,176l0,112m56,-56l-112,0" stroke-width="32" stroke-linejoin="round" stroke-linecap="round" stroke="#ffffff" fill="#02ab76"/>
 </g>
</svg>